# xmcd
#
# Track frame offsets: 
#        150
#        11064
#        24125
#        38026
#        48863
#        58227
#        68161
#        76225
#        86791
#        98492
#        115182
#        126345
#        138307
#        150774
#        157113
#        168707
#        179496
#        190043
#        203253
#        212830
#        220173
#        229208
#        241514
#        254300
#        266193
#        281365
#        295536
#        308766
#        324594
#        334039
#
# Disc length: 4650 seconds
#
# Revision: 0
# Processed by: cddbd v1.5.2PL0 Copyright (c) Steve Scherf et al.
# Submitted via: ExactAudioCopy v0.95b3
#
DISCID=9912281e
DTITLE=Various Artist - Nashville Sputnik
DYEAR=2008
DGENRE=Country
TTITLE0=Strange New World
TTITLE1=The Lonely Sentry
TTITLE2=We Walked This Road Before
TTITLE3=Time Machine
TTITLE4=Skellykins
TTITLE5=Yellow Bellied Sap Sucker
TTITLE6=Gemini
TTITLE7=Lonely Bell
TTITLE8=Mary Turn Around
TTITLE9=Changin Times
TTITLE10=I'm Hung Up On You
TTITLE11=Boy With The Be-Bop Glasses
TTITLE12=Hit Me One More Time
TTITLE13=Let's Have A Hayride
TTITLE14=Cadillac
TTITLE15=Little Orphan Annie
TTITLE16=Midnight Greyhound
TTITLE17=Here Today, Gone Tomorrow
TTITLE18=New World
TTITLE19=Runaway
TTITLE20=The King Of Hearts
TTITLE21=Journey's End
TTITLE22=Monkey See Monkey Do
TTITLE23=The Love Habit
TTITLE24=I'm Feelin' A Change In My Life
TTITLE25=The Look Of Nothing
TTITLE26=Somewhere In Virginia In The Rain (Disco Version)
TTITLE27=Don't It Look Like Georgia
TTITLE28=Dance Of The Living Dead Chickens
TTITLE29=A Weird Little Christmas
EXTD=
EXTT0=
EXTT1=
EXTT2=
EXTT3=
EXTT4=
EXTT5=
EXTT6=
EXTT7=
EXTT8=
EXTT9=
EXTT10=
EXTT11=
EXTT12=
EXTT13=
EXTT14=
EXTT15=
EXTT16=
EXTT17=
EXTT18=
EXTT19=
EXTT20=
EXTT21=
EXTT22=
EXTT23=
EXTT24=
EXTT25=
EXTT26=
EXTT27=
EXTT28=
EXTT29=
PLAYORDER=
